# xmcd CD database file
#
# Track frame offsets:
#	150
#	12718
#	24235
#	36169
#	52178
#	67574
#	85119
#	100028
#	115317
#	129932
#	142309
#	166574
#	183652
#	204182
#	214258
#	227256
#	230808
#	248470
#	265876
#
# Disc length: 3628 seconds
#
# Revision: 0
# Processed by: cddbd v1.5.2PL0 Copyright (c) Steve Scherf et al.
# Submitted via: CDex 1.50
#
DISCID=f90e2a13
DTITLE=Kenny Rogers and The First Edition - The Ballad Of Calico
DYEAR=1972
DGENRE=Country
TTITLE0=Sunrise Overture
TTITLE1=Calico Silver
TTITLE2=Write Me Down (Don't Forget My Name)
TTITLE3=The Way It Used To Be
TTITLE4=Madame De Lil And Diabolical Biill
TTITLE5=School Teacher
TTITLE6=Road Agent
TTITLE7=Sally Grey's Epitaph
TTITLE8=Dorsey, the Mail-Carrying Dog
TTITLE9=Harbor For My Soul
TTITLE10=Calico Saturday Night
TTITLE11=Trigger Happy Kid
TTITLE12=Vachel Carling's Rubilator
TTITLE13=Empty Handed Compadres
TTITLE14=One Lonely Room
TTITLE15=Rockin' Chair Theme
TTITLE16=Old Mojave Highway
TTITLE17=Man Came Up From Town
TTITLE18=Calico Silver (Reprise)
EXTD=YEAR: 1972
EXTT0=
EXTT1=
EXTT2=
EXTT3=
EXTT4=
EXTT5=
EXTT6=
EXTT7=
EXTT8=
EXTT9=
EXTT10=
EXTT11=
EXTT12=
EXTT13=
EXTT14=
EXTT15=
EXTT16=
EXTT17=
EXTT18=
PLAYORDER=
